<svg xmlns="http://www.w3.org/2000/svg" width="278.649" height="199.681"><defs><marker orient="auto" refY="0" refX="0" id="a" overflow="visible"><path d="M8.719 4.034L-2.207.016 8.719-4.002c-1.746 2.372-1.736 5.618 0 8.036z" transform="scale(-.6)" font-size="12" fill-rule="evenodd" stroke-width=".625" stroke-linejoin="round"/></marker></defs><g transform="translate(-208.193 -534.314)"><path d="M227 602.362l79-1 14 56-91 43z" fill="none" stroke="#000"/><path d="M246.198 535.123l80.642 69.26-116.727 8.476z" fill="none" stroke="#000"/><path fill="#0f0" d="M224 608.362h7v7h-7zM303.5 602.362h7v7h-7z"/><path d="M386 601.862l79-1 14 56-91 43z" fill="none" stroke="#000"/><circle transform="translate(-2 14)" cx="428.75" cy="556.612" r="34.75" fill="none" stroke="#000"/><path fill="#0f0" d="M424.5 602.862h7v7h-7z"/><path d="M264 601.362v-26.5M427.51 601.024v-26.5" fill="none" stroke="#000" marker-end="url(#a)"/><text style="line-height:0%;-inkscape-font-specification:Calibri;text-align:start" x="208" y="731.862" font-weight="400" font-family="Calibri"><tspan x="208" y="731.862" style="line-height:1.25" font-size="12">two points, one normal</tspan></text><text style="line-height:0%;-inkscape-font-specification:Calibri;text-align:start" x="378.831" y="731.862" font-weight="400" font-family="Calibri"><tspan x="378.831" y="731.862" style="line-height:1.25" font-size="12">one point, one normal</tspan></text></g></svg>