<svg xmlns="http://www.w3.org/2000/svg" width="216.625" height="229"><defs><marker orient="auto" refY="0" refX="0" id="a" overflow="visible"><path d="M8.719 4.034L-2.207.016 8.719-4.002c-1.746 2.372-1.736 5.618 0 8.036z" transform="matrix(-1.1 0 0 -1.1 -1.1 0)" font-size="12" fill-rule="evenodd" stroke-width=".625" stroke-linejoin="round"/></marker></defs><path fill="#d7e3f4" d="M0 92h120v46H0zM96.625 0h120v46h-120z"/><text style="line-height:0%;-inkscape-font-specification:Calibri;text-align:start" x="310.137" y="351.927" font-weight="400" font-family="Calibri" transform="translate(-183 -324.362)"><tspan x="310.137" y="351.927" style="line-height:1.25" font-size="16">Common</tspan></text><text style="line-height:0%;-inkscape-font-specification:Calibri;text-align:start" x="215.793" y="442.927" font-weight="400" font-family="Calibri" transform="translate(-183 -324.362)"><tspan x="215.793" y="442.927" style="line-height:1.25" font-size="16">Collision</tspan></text><path fill="#d7e3f4" d="M96.625 183h120v46h-120z"/><text style="line-height:0%;-inkscape-font-specification:Calibri;text-align:start" x="307.945" y="535.927" font-weight="400" font-family="Calibri" transform="translate(-183 -324.362)"><tspan x="307.945" y="535.927" style="line-height:1.25" font-size="16">Dynamics</tspan></text><path d="M315.469 370.362l-48.313 46M267.422 462.362l47.781 45M339.625 370.362v137" fill="none" stroke="#000" marker-end="url(#a)" transform="translate(-183 -324.362)"/></svg>