<svg xmlns="http://www.w3.org/2000/svg" width="248.014" height="218.692"><defs><marker orient="auto" refY="0" refX="0" id="a" overflow="visible"><path d="M8.719 4.034L-2.207.016 8.719-4.002c-1.746 2.372-1.736 5.618 0 8.036z" transform="scale(-.6)" font-size="12" fill-rule="evenodd" stroke-width=".625" stroke-linejoin="round"/></marker></defs><g fill="none" stroke="#000"><path d="M39.337 106.5h19.816v16.816H39.337zM185.328 61.991h54.335v36.335h-54.335zM29.018 181.681h35.454v21.954H29.018zM215.476 141.14h32.038v20.537h-32.038zM113.462 157.125h43.567v61.067h-43.567zM99.88 62.544h33.729v66.228H99.88zM181.6 180.263h33.79v30.791H181.6zM17.365 39.528h49.26v43.76h-49.26z"/><path d="M413.965 367.897l-219.93 175.43" stroke-dasharray="1,2" marker-end="url(#a)" transform="translate(-193.005 -367.204)"/><path d="M414.268 367.594l-86.856 69.282" marker-end="url(#a)" transform="translate(-193.005 -367.204)"/></g></svg>