<svg xmlns="http://www.w3.org/2000/svg" width="322.269" height="108.76"><g transform="translate(-178.071 -467.673)"><path fill="#d7e3f4" stroke="#000" stroke-linecap="round" stroke-linejoin="round" d="M314.034 471.861h56.569v42.426h-56.569z"/><path d="M313.957 468.173a3.215 3.215 0 00-3.215 3.215v42.438a3.215 3.215 0 003.215 3.215h56.562a3.215 3.215 0 003.215-3.215v-42.438a3.215 3.215 0 00-3.215-3.215z" fill="none" stroke="#7d7d7d" stroke-linecap="round" stroke-linejoin="round" stroke-dasharray="1,3"/><path fill="#d7e3f4" stroke="#000" stroke-linecap="round" stroke-linejoin="round" d="M319.461 520.264h53.538v47.477h-53.538z"/><path d="M319.159 517.972a3.293 3.293 0 00-3.293 3.293v47.469a3.293 3.293 0 003.293 3.293h53.531a3.293 3.293 0 003.293-3.293v-47.469a3.293 3.293 0 00-3.293-3.293z" fill="none" stroke="#7d7d7d" stroke-linecap="round" stroke-linejoin="round" stroke-dasharray="1,3"/><path d="M181.827 572.54h313.148" fill="none" stroke="#000"/><rect width="321.269" height="6.071" x="178.571" y="569.862" ry="3.036" fill="none" stroke="#7d7d7d" stroke-linecap="round" stroke-linejoin="round" stroke-dasharray="1,3"/><text style="line-height:0%;-inkscape-font-specification:Calibri;text-align:start" x="393.959" y="501.071" font-weight="400" font-family="Calibri" letter-spacing="0" word-spacing="0"><tspan x="393.959" y="501.071" style="line-height:1.25" font-size="14">Polygons collide</tspan><tspan x="393.959" y="518.571" style="line-height:1.25" font-size="14">with their skin</tspan></text></g></svg>