<svg xmlns="http://www.w3.org/2000/svg" width="69.632" height="119.937"><defs><marker orient="auto" refY="0" refX="0" id="b" overflow="visible"><path d="M8.719 4.034L-2.207.016 8.719-4.002c-1.746 2.372-1.736 5.618 0 8.036z" transform="matrix(-1.1 0 0 -1.1 -1.1 0)" font-size="12" fill-rule="evenodd" stroke-width=".625" stroke-linejoin="round"/></marker><marker orient="auto" refY="0" refX="0" id="a" overflow="visible"><path d="M8.719 4.034L-2.207.016 8.719-4.002c-1.746 2.372-1.736 5.618 0 8.036z" transform="translate(1.1) scale(1.1)" font-size="12" fill-rule="evenodd" stroke-width=".625" stroke-linejoin="round"/></marker></defs><g transform="translate(-313.07 -471.36)"><path fill="#d7e3f4" stroke="#767676" stroke-linecap="round" stroke-linejoin="round" d="M314.034 471.861h56.569v42.426h-56.569z"/><circle transform="translate(-8.571 -2.857)" cx="351.25" cy="560.755" r="16.964" fill="#d7e3f4" stroke="#767676" stroke-linecap="round" stroke-linejoin="round"/><path d="M341.786 492.362l1.428 98.929" fill="none" stroke="#000"/><circle transform="translate(134.224 67.175)" cx="208.571" cy="490.934" r="2.143"/><path d="M377.857 506.47l.536 45" fill="none" stroke="#000" marker-start="url(#a)" marker-end="url(#b)"/><path d="M308.311 578.192A23.393 23.393 0 01290.458 559a23.393 23.393 0 0111.166-23.714" transform="translate(23.393 2.5)" fill="none" stroke="#767676" marker-start="url(#a)" marker-end="url(#b)"/></g></svg>