<svg xmlns="http://www.w3.org/2000/svg" width="236.532" height="176.419"><defs><marker orient="auto" refY="0" refX="0" id="b" overflow="visible"><path d="M8.719 4.034L-2.207.016 8.719-4.002c-1.746 2.372-1.736 5.618 0 8.036z" transform="scale(.6)" font-size="12" fill-rule="evenodd" stroke-width=".625" stroke-linejoin="round"/></marker><marker orient="auto" refY="0" refX="0" id="a" overflow="visible"><path d="M8.719 4.034L-2.207.016 8.719-4.002c-1.746 2.372-1.736 5.618 0 8.036z" transform="scale(-.6)" font-size="12" fill-rule="evenodd" stroke-width=".625" stroke-linejoin="round"/></marker></defs><text x="476.473" y="507.864" style="line-height:0%;-inkscape-font-specification:Calibri;text-align:start" font-weight="400" font-size="12" font-family="Calibri" transform="translate(-245.942 -381.592)">x</text><text x="482.473" y="507.864" style="line-height:0%;text-align:start" font-weight="400" font-size="13.8" font-family="Calibri" transform="translate(-245.942 -381.592)"></text><text x="387.673" y="387.193" style="line-height:0%;-inkscape-font-specification:Calibri;text-align:start" font-weight="400" font-size="12" font-family="Calibri" transform="translate(-245.942 -381.592)">y</text><text x="396.323" y="383.193" style="line-height:0%;text-align:start" font-weight="400" font-size="13.8" font-family="Calibri" transform="translate(-245.942 -381.592)"></text><text x="245.373" y="420.096" style="line-height:0%;-inkscape-font-specification:Calibri;text-align:start" font-weight="400" font-size="12" font-family="Calibri" transform="translate(-245.942 -381.592)">CCW winding</text><text x="294.623" y="397.596" style="line-height:0%;text-align:start" font-weight="400" font-size="13.8" font-family="Calibri" transform="translate(-245.942 -381.592)"></text><path d="M345.5 414.362l-56.5 34" fill="none" stroke="#000" stroke-width="1.5" marker-end="url(#a)" transform="translate(-245.942 -381.592)"/><path d="M43.558 84.77l26 47.5 57.5 43.5 77.5-70-17-61.5-70.5-4z" fill="#d7e3f4" stroke="#000"/><path d="M384 392.862v101h95.5" fill="none" stroke="#000" stroke-width="1.5" marker-start="url(#b)" marker-end="url(#a)" transform="translate(-245.942 -381.592)"/></svg>