<svg xmlns="http://www.w3.org/2000/svg" width="401.76" height="216.621"><g transform="translate(-184.534 -272.828)"><path d="M187.768 435.596l66.003 30.73 70.027-17.56s66.002 36.583 70.027 38.046c4.024 1.463 84.417-38.312 84.417-38.312l104.736-34.122-76.466-98.041 58.758-35.852" fill="none" stroke="#767676" stroke-width=".76"/><circle transform="translate(-54.372 -177.182)" cx="241.932" cy="611.936" r="2.525" fill="#b0ddb3" stroke="#7d7d7d" stroke-linecap="round" stroke-linejoin="round"/><circle transform="translate(11.817 -145.14)" cx="241.932" cy="611.936" r="2.525" fill="#b0ddb3" stroke="#7d7d7d" stroke-linecap="round" stroke-linejoin="round"/><circle transform="translate(81.492 -163.513)" cx="241.932" cy="611.936" r="2.525" fill="#b0ddb3" stroke="#7d7d7d" stroke-linecap="round" stroke-linejoin="round"/><circle transform="translate(235.876 -162.86)" cx="241.932" cy="611.936" r="2.525" fill="#b0ddb3" stroke="#7d7d7d" stroke-linecap="round" stroke-linejoin="round"/><circle transform="translate(152.385 -125.513)" cx="241.932" cy="611.936" r="2.525" fill="#b0ddb3" stroke="#7d7d7d" stroke-linecap="round" stroke-linejoin="round"/><circle transform="translate(341.337 -197.586)" cx="241.932" cy="611.936" r="2.525" fill="#b0ddb3" stroke="#7d7d7d" stroke-linecap="round" stroke-linejoin="round"/><circle transform="translate(265.173 -295.863)" cx="241.932" cy="611.936" r="2.525" fill="#b0ddb3" stroke="#7d7d7d" stroke-linecap="round" stroke-linejoin="round"/><circle transform="translate(323.653 -332.435)" cx="241.932" cy="611.936" r="2.525" fill="#b0ddb3" stroke="#7d7d7d" stroke-linecap="round" stroke-linejoin="round"/><text style="line-height:0%;-inkscape-font-specification:Calibri;text-align:start" x="196.41" y="429.327" font-weight="400" font-family="Calibri" letter-spacing="0" word-spacing="0"><tspan x="196.41" y="429.327" style="line-height:1.25" font-size="14">isolated</tspan></text><text y="282.35" x="502.991" style="line-height:0%;-inkscape-font-specification:Calibri;text-align:start" font-weight="400" font-family="Calibri" letter-spacing="0" word-spacing="0"><tspan y="282.35" x="502.991" style="line-height:1.25" font-size="14">isolated</tspan></text></g></svg>