<svg xmlns="http://www.w3.org/2000/svg" width="262.63" height="103.721"><defs><marker orient="auto" refY="0" refX="0" id="a" overflow="visible"><path d="M-1.2 0l-1 1 3.5-1-3.5-1z" fill-rule="evenodd" stroke="#000" stroke-width=".2666"/></marker><marker orient="auto" refY="0" refX="0" id="b" overflow="visible"><path d="M-4 0l-2 2 7-2-7-2z" fill-rule="evenodd" stroke="#000" stroke-width=".5332"/></marker></defs><g transform="translate(-286.888 -532.208)"><path d="M289.914 613.45l255.558 1.516" fill="none" stroke="#7d7d7d" stroke-linecap="round"/><circle transform="translate(47.982 1.515)" cx="241.932" cy="611.936" r="2.525" fill="#b0ddb3" stroke="#7d7d7d" stroke-linecap="round" stroke-linejoin="round"/><circle transform="translate(181.322 2.525)" cx="241.932" cy="611.936" r="2.525" fill="#b0ddb3" stroke="#7d7d7d" stroke-linecap="round" stroke-linejoin="round"/><circle transform="translate(304.561 3.536)" cx="241.932" cy="611.936" r="2.525" fill="#b0ddb3" stroke="#7d7d7d" stroke-linecap="round" stroke-linejoin="round"/><path fill="#d7e3f4" stroke="#7d7d7d" stroke-linecap="round" stroke-linejoin="round" d="M375.231 569.509h47.982v41.921h-47.982z"/><path d="M373.756 552.337h51.013" fill="none" stroke="#000" stroke-width="4" marker-end="url(#a)"/><path d="M454.548 609.915h-28.284" fill="none" stroke="#000" marker-end="url(#b)"/><text style="line-height:0%;-inkscape-font-specification:Calibri;text-align:start" x="370.221" y="541.73" font-weight="400" font-family="Calibri" letter-spacing="0" word-spacing="0"><tspan x="370.221" y="541.73" style="line-height:1.25" font-size="14">box motion</tspan></text><text style="line-height:0%;-inkscape-font-specification:Calibri;text-align:start" x="439.286" y="606.291" font-weight="400" font-family="Calibri" letter-spacing="0" word-spacing="0"><tspan x="439.286" y="606.291" style="line-height:1.25" font-size="14">internal normal</tspan></text><text style="line-height:0%;-inkscape-font-specification:Calibri;text-align:start" x="328.929" y="633.434" font-weight="400" font-family="Calibri" letter-spacing="0" word-spacing="0"><tspan x="328.929" y="633.434" style="line-height:1.25" font-size="14">edge1</tspan></text><text style="line-height:0%;-inkscape-font-specification:Calibri;text-align:start" x="460.783" y="633.362" font-weight="400" font-family="Calibri" letter-spacing="0" word-spacing="0"><tspan x="460.783" y="633.362" style="line-height:1.25" font-size="14">edge2</tspan></text></g></svg>