<svg xmlns="http://www.w3.org/2000/svg" width="296.5" height="148.657"><defs><marker orient="auto" refY="0" refX="0" id="a" overflow="visible"><path d="M8.719 4.034L-2.207.016 8.719-4.002c-1.746 2.372-1.736 5.618 0 8.036z" transform="scale(-.6)" font-size="12" fill-rule="evenodd" stroke-width=".625" stroke-linejoin="round"/></marker></defs><path fill="none" stroke="#000" d="M.5 131.157H296v17H.5zM134.187.645l7.473 2.857-47.847 125.166-7.473-2.856zM154.67 3.854l7.488-2.816L209.33 126.46l-7.487 2.816z"/><path fill="none" stroke="#000" stroke-dasharray="2,4" d="M144 4.157h8v134h-8z"/><text style="line-height:0%;-inkscape-font-specification:Calibri;text-align:start" x="340.5" y="466.362" font-weight="400" font-family="Calibri" transform="translate(-245 -425.205)"><tspan x="340.5" y="466.362" style="line-height:1.25" font-size="12">t=0</tspan></text><text style="line-height:0%;-inkscape-font-specification:Calibri;text-align:start" x="432.5" y="466.339" font-weight="400" font-family="Calibri" transform="translate(-245 -425.205)"><tspan x="432.5" y="466.339" style="line-height:1.25" font-size="12">t=1</tspan></text><path d="M500.5 556.362v-40.5" fill="none" stroke="#000" marker-end="url(#a)" transform="translate(-245 -425.205)"/><text style="line-height:0%;-inkscape-font-specification:Calibri;text-align:start" x="462.5" y="507.862" font-weight="400" font-family="Calibri" transform="translate(-245 -425.205)"><tspan x="462.5" y="507.862" style="line-height:1.25" font-size="12">separating axis</tspan></text></svg>