<svg xmlns="http://www.w3.org/2000/svg" width="174.87" height="149.37"><g stroke="#000"><path d="M6.367 51.331l26 47.5 57.5 43.5 77.5-70-17-61.5-70.5-4z" fill="#d7e3f4"/><path d="M80.155.506a6.436 6.436 0 00-3.055.924L3.6 45.93a6.436 6.436 0 00-2.31 8.596l26 47.5a6.436 6.436 0 001.761 2.043l57.5 43.5a6.436 6.436 0 008.198-.358l77.5-70a6.436 6.436 0 001.888-6.49l-17-61.5a6.436 6.436 0 00-5.838-4.71l-70.5-4a6.436 6.436 0 00-.644-.005z" fill="none" stroke-linecap="round" stroke-linejoin="round" stroke-dasharray="1,4"/></g></svg>